<svg xmlns="http://www.w3.org/2000/svg" width="1600" height="900" viewBox="0 0 1600 900">
<defs>
  <linearGradient id="g2" x1="0" y1="1" x2="1" y2="0">
    <stop offset="0" stop-color="#0b4b7a"/>
    <stop offset="1" stop-color="#0f2a43"/>
  </linearGradient>
</defs>
<rect width="1600" height="900" fill="url(#g2)"/>
<g opacity="0.24" fill="#fff">
  <circle cx="220" cy="240" r="6"/><circle cx="260" cy="280" r="4"/><circle cx="310" cy="220" r="5"/>
  <circle cx="1340" cy="180" r="6"/><circle cx="1380" cy="230" r="4"/><circle cx="1280" cy="220" r="5"/>
  <circle cx="1150" cy="720" r="5"/><circle cx="1100" cy="760" r="4"/><circle cx="1200" cy="780" r="6"/>
</g>
<g opacity="0.35" stroke="#ffffff" stroke-width="2" fill="none">
  <path d="M220 240 L 310 220 L 260 280 Z"/>
  <path d="M1340 180 L 1280 220 L 1380 230 Z"/>
  <path d="M1150 720 L 1200 780 L 1100 760 Z"/>
</g>
<g opacity="0.22" stroke="#ffffff" stroke-width="3" fill="none">
  <path d="M240 520 C 420 360, 620 360, 800 520 S 1180 680, 1360 520"/>
</g>
</svg>